<svg width="20" height="25" viewBox="0 0 20 25" fill="none" xmlns="http://www.w3.org/2000/svg">
<path d="M7.5 22.5L8.28333 20.775L10 20L8.28333 19.225L7.5 17.5L6.73333 19.225L5 20L6.73333 20.775L7.5 22.5Z" fill="#1C2D61"/>
<path d="M16.875 6.25L17.5 3.75L20 3.125L17.5 2.5L16.875 0L16.25 2.5L13.75 3.125L16.25 3.75L16.875 6.25Z" fill="#1C2D61"/>
<path d="M11.25 6.25L10 3.75H0V25H2.5V16.25H8.75L10 18.75H18.75V6.25H11.25ZM16.25 16.25H11.25L10 13.75H2.5V6.25H8.75L10 8.75H16.25V16.25Z" fill="#1C2D61"/>
</svg>
