<svg width="72" height="32" viewBox="0 0 72 32" fill="none" xmlns="http://www.w3.org/2000/svg">
<g filter="url(#filter0_d)">
<rect x="1" width="44" height="10" rx="1" fill="#1A181B"/>
<rect x="1" y="10" width="70" height="9" rx="1" fill="#1A181B"/>
<rect x="1" y="19" width="59" height="11" rx="1" fill="#1A181B"/>
<path fill-rule="evenodd" clip-rule="evenodd" d="M27.0575 21.25C25.8988 25.8762 23.8737 28.75 23 30C22.1263 28.75 20.1 25.8775 18.9425 21.25H27.0575ZM36.6375 21.25C34.69 25.4888 30.825 28.6663 26.155 29.6663C27.7987 27.0812 28.9575 24.2138 29.6263 21.25H36.6375ZM9.3625 21.25H16.3737C17.0475 24.2325 18.2112 27.0975 19.845 29.6663C15.175 28.6663 11.31 25.4888 9.3625 21.25ZM27.55 18.75H18.45C18.0875 16.2687 18.0875 13.7325 18.45 11.25H27.5513C27.9112 13.7325 27.9113 16.2687 27.55 18.75ZM15.9262 18.75H8.47375C8.16375 17.5525 8 16.295 8 15C8 13.705 8.16375 12.4487 8.47375 11.25H15.9262C15.5975 13.735 15.5975 16.265 15.9262 18.75ZM37.5263 18.75H30.0725C30.4038 16.265 30.4038 13.735 30.0737 11.25H37.5263C37.835 12.4487 38 13.705 38 15C38 16.295 37.835 17.5525 37.5263 18.75ZM27.0575 8.75H18.9425C20.0988 4.1225 22.125 1.25 23 0C24.4925 2.135 26.055 4.74875 27.0575 8.75ZM16.3725 8.74875H9.36125C11.31 4.51125 15.175 1.33375 19.845 0.3325C18.2987 2.7575 17.0775 5.62875 16.3725 8.74875ZM36.6375 8.74875H29.6263C28.93 5.67125 27.735 2.81125 26.1537 0.3325C30.8237 1.33375 34.69 4.51125 36.6375 8.74875Z" fill="#F46036"/>
</g>
<defs>
<filter id="filter0_d" x="0" y="0" width="72" height="32" filterUnits="userSpaceOnUse" color-interpolation-filters="sRGB">
<feFlood flood-opacity="0" result="BackgroundImageFix"/>
<feColorMatrix in="SourceAlpha" type="matrix" values="0 0 0 0 0 0 0 0 0 0 0 0 0 0 0 0 0 0 127 0"/>
<feOffset dy="1"/>
<feGaussianBlur stdDeviation="0.5"/>
<feColorMatrix type="matrix" values="0 0 0 0 0.956863 0 0 0 0 0.376471 0 0 0 0 0.211765 0 0 0 1 0"/>
<feBlend mode="normal" in2="BackgroundImageFix" result="effect1_dropShadow"/>
<feBlend mode="normal" in="SourceGraphic" in2="effect1_dropShadow" result="shape"/>
</filter>
</defs>
</svg>
