<svg width="154" height="21" viewBox="0 0 154 21" fill="none" xmlns="http://www.w3.org/2000/svg">
<path d="M12.5973 3.41846V1.07031H0.559181V3.41846H5.10166V16H7.99326V3.41846H12.5973ZM16.5692 4.90527V7.23291H19.7274V13.6826H16.5692V16H25.6132V13.6826H22.6088V4.90527H16.5692ZM19.5223 2.06494C19.5223 2.28369 19.5599 2.48877 19.6351 2.68018C19.7172 2.86475 19.83 3.02197 19.9735 3.15186C20.1171 3.28857 20.288 3.39453 20.4862 3.46973C20.6913 3.54492 20.9169 3.58252 21.163 3.58252C21.6688 3.58252 22.0687 3.44238 22.3627 3.16211C22.6635 2.875 22.8138 2.50928 22.8138 2.06494C22.8138 1.62061 22.6635 1.2583 22.3627 0.978027C22.0687 0.690918 21.6688 0.547363 21.163 0.547363C20.9169 0.547363 20.6913 0.584961 20.4862 0.660156C20.288 0.735352 20.1171 0.837891 19.9735 0.967773C19.83 1.10449 19.7172 1.26855 19.6351 1.45996C19.5599 1.64453 19.5223 1.84619 19.5223 2.06494ZM29.9338 20.2656H32.7843V15.0361C32.9142 15.1797 33.0509 15.3096 33.1945 15.4258C33.338 15.542 33.4884 15.6479 33.6457 15.7437C33.9123 15.894 34.1994 16.0068 34.507 16.082C34.8214 16.1641 35.1632 16.2051 35.5324 16.2051C36.2297 16.2051 36.8483 16.0615 37.3883 15.7744C37.9284 15.4873 38.383 15.0908 38.7521 14.585C39.1144 14.0859 39.3879 13.4912 39.5724 12.8008C39.7638 12.1104 39.8595 11.3618 39.8595 10.5552V10.3398C39.8595 9.49902 39.7638 8.7334 39.5724 8.04297C39.3879 7.3457 39.111 6.74756 38.7419 6.24854C38.3727 5.75635 37.9181 5.37695 37.3781 5.11035C36.838 4.83691 36.216 4.7002 35.5119 4.7002C35.1701 4.7002 34.8488 4.73779 34.548 4.81299C34.2541 4.88135 33.984 4.98047 33.738 5.11035C33.5329 5.21973 33.3415 5.34961 33.1637 5.5C32.986 5.64355 32.8219 5.80762 32.6715 5.99219L32.569 4.90527H29.9338V20.2656ZM37.0089 10.3398V10.5552C37.0089 11.0132 36.9679 11.4473 36.8859 11.8574C36.8039 12.2607 36.674 12.6162 36.4963 12.9238C36.3185 13.2314 36.0861 13.4741 35.799 13.6519C35.5187 13.8296 35.1769 13.9185 34.7736 13.9185C34.5207 13.9185 34.2917 13.8945 34.0866 13.8467C33.8815 13.792 33.7004 13.7168 33.5431 13.6211C33.3791 13.5186 33.2321 13.3955 33.1022 13.252C32.9792 13.1084 32.8732 12.9478 32.7843 12.77V8.13525C32.88 7.94385 32.9928 7.77637 33.1227 7.63281C33.2594 7.48926 33.4167 7.36963 33.5944 7.27393C33.7516 7.19189 33.9259 7.13037 34.1173 7.08936C34.3088 7.0415 34.5207 7.01758 34.7531 7.01758C35.1564 7.01758 35.4982 7.10303 35.7785 7.27393C36.0656 7.44482 36.3014 7.67725 36.486 7.97119C36.6637 8.27197 36.7936 8.62744 36.8756 9.0376C36.9645 9.44092 37.0089 9.875 37.0089 10.3398ZM67.4294 9.81689V7.479H61.031V3.41846H68.2292V1.07031H58.1394V16H61.031V9.81689H67.4294ZM79.0713 16H81.9629V15.8257C81.8193 15.5454 81.71 15.2104 81.6348 14.8208C81.5596 14.4312 81.522 13.939 81.522 13.3442V8.58643C81.522 7.94385 81.4023 7.37988 81.1631 6.89453C80.9238 6.40234 80.5923 5.99561 80.1685 5.67432C79.7446 5.35303 79.2422 5.11035 78.6611 4.94629C78.0869 4.78223 77.4648 4.7002 76.7949 4.7002C76.0498 4.7002 75.3867 4.7959 74.8057 4.9873C74.2314 5.17188 73.7461 5.4248 73.3496 5.74609C72.9463 6.06738 72.6387 6.43994 72.4268 6.86377C72.2217 7.2876 72.1191 7.73535 72.1191 8.20703H74.9697C74.9697 8.00879 74.9971 7.82764 75.0518 7.66357C75.1133 7.49951 75.2056 7.35938 75.3286 7.24316C75.4653 7.11328 75.6431 7.01416 75.8618 6.9458C76.0806 6.87061 76.3403 6.83301 76.6411 6.83301C76.9829 6.83301 77.2803 6.87744 77.5332 6.96631C77.793 7.04834 78.0083 7.16797 78.1792 7.3252C78.3433 7.47559 78.4663 7.65674 78.5483 7.86865C78.6304 8.07373 78.6714 8.30615 78.6714 8.56592V9.22217H77.082C76.2617 9.22217 75.5337 9.29736 74.8979 9.44775C74.269 9.59131 73.7393 9.80322 73.3086 10.0835C72.8301 10.3911 72.4712 10.7842 72.2319 11.2627C71.9927 11.7344 71.873 12.2778 71.873 12.8931C71.873 13.3716 71.9688 13.8159 72.1602 14.2261C72.3516 14.6294 72.6182 14.978 72.96 15.272C73.3018 15.5659 73.7085 15.7949 74.1802 15.959C74.6587 16.123 75.1816 16.2051 75.749 16.2051C76.0977 16.2051 76.4224 16.1709 76.7231 16.1025C77.0239 16.041 77.3008 15.9521 77.5537 15.8359C77.7998 15.7266 78.0254 15.5967 78.2305 15.4463C78.4355 15.2959 78.6167 15.1353 78.7739 14.9644C78.8081 15.1626 78.8491 15.3506 78.897 15.5283C78.9448 15.7061 79.0029 15.8633 79.0713 16ZM76.354 14.0005C76.0874 14.0005 75.8516 13.9697 75.6465 13.9082C75.4482 13.8398 75.2808 13.751 75.144 13.6416C75.0073 13.5254 74.9014 13.3853 74.8262 13.2212C74.7578 13.0503 74.7236 12.8657 74.7236 12.6675C74.7236 12.4146 74.7715 12.1821 74.8672 11.9702C74.9629 11.7515 75.1099 11.5635 75.3081 11.4062C75.5063 11.2559 75.7627 11.1396 76.0771 11.0576C76.3916 10.9688 76.771 10.9243 77.2153 10.9243H78.6714V12.8315C78.5894 12.9751 78.4766 13.1187 78.333 13.2622C78.1895 13.3989 78.0186 13.522 77.8203 13.6313C77.6221 13.7407 77.3999 13.8296 77.1538 13.8979C76.9077 13.9663 76.6411 14.0005 76.354 14.0005ZM91.1336 13.9287C90.6756 13.9287 90.2962 13.8364 89.9954 13.6519C89.7014 13.4673 89.469 13.2212 89.2981 12.9136C89.1204 12.6128 88.9973 12.2642 88.929 11.8677C88.8606 11.4644 88.8264 11.0474 88.8264 10.6167V10.3091C88.8264 9.88525 88.8606 9.4751 88.929 9.07861C89.0042 8.68213 89.1306 8.33008 89.3084 8.02246C89.4793 7.71484 89.7117 7.46875 90.0056 7.28418C90.2996 7.09961 90.6721 7.00732 91.1233 7.00732C91.4309 7.00732 91.7146 7.06201 91.9744 7.17139C92.2342 7.27393 92.4563 7.41406 92.6409 7.5918C92.8255 7.76953 92.9656 7.98145 93.0613 8.22754C93.157 8.47363 93.198 8.7334 93.1844 9.00684H95.8709C95.8846 8.35059 95.7752 7.75928 95.5428 7.23291C95.3103 6.69971 94.9856 6.24512 94.5686 5.86914C94.1448 5.5 93.6424 5.21289 93.0613 5.00781C92.4803 4.80273 91.8479 4.7002 91.1643 4.7002C90.3098 4.7002 89.5579 4.84717 88.9085 5.14111C88.2659 5.43506 87.7259 5.83496 87.2884 6.34082C86.8509 6.84668 86.5227 7.44141 86.304 8.125C86.0852 8.80176 85.9759 9.52979 85.9759 10.3091V10.6167C85.9759 11.396 86.0852 12.1274 86.304 12.811C86.5296 13.4878 86.8611 14.0791 87.2986 14.585C87.7293 15.0908 88.2693 15.4907 88.9187 15.7847C89.5681 16.0718 90.3235 16.2153 91.1848 16.2153C91.8206 16.2153 92.4221 16.1162 92.9895 15.918C93.5638 15.7129 94.0662 15.4326 94.4969 15.0771C94.9275 14.7217 95.2659 14.2979 95.512 13.8057C95.7649 13.3135 95.8846 12.7803 95.8709 12.2061H93.1844C93.198 12.4658 93.1502 12.7017 93.0408 12.9136C92.9383 13.1255 92.7913 13.3066 92.5999 13.457C92.4085 13.6074 92.1863 13.7236 91.9334 13.8057C91.6805 13.8877 91.4138 13.9287 91.1336 13.9287ZM105.534 2.18799H102.683V4.90527H100.15V7.00732H102.683V12.0522C102.683 12.7837 102.779 13.4126 102.97 13.939C103.162 14.4585 103.435 14.8857 103.791 15.2207C104.139 15.5625 104.56 15.8154 105.052 15.9795C105.551 16.1367 106.105 16.2153 106.713 16.2153C107.027 16.2153 107.345 16.1982 107.667 16.1641C107.995 16.1367 108.309 16.0957 108.61 16.041C108.911 15.9863 109.194 15.918 109.461 15.8359C109.728 15.7471 109.96 15.6445 110.158 15.5283L109.881 13.5698C109.752 13.604 109.594 13.6382 109.41 13.6724C109.232 13.7065 109.041 13.7373 108.836 13.7646C108.624 13.7988 108.401 13.8262 108.169 13.8467C107.943 13.8672 107.721 13.8774 107.503 13.8774C107.202 13.8774 106.928 13.8433 106.682 13.7749C106.443 13.7065 106.238 13.5903 106.067 13.4263C105.896 13.269 105.763 13.0571 105.667 12.7905C105.578 12.5171 105.534 12.1787 105.534 11.7754V7.00732H109.676V4.90527H105.534V2.18799ZM113.997 10.3501V10.5654C113.997 11.3789 114.113 12.1309 114.346 12.8213C114.578 13.5049 114.92 14.0996 115.371 14.6055C115.815 15.1113 116.362 15.5078 117.012 15.7949C117.668 16.0752 118.413 16.2153 119.247 16.2153C120.074 16.2153 120.812 16.0752 121.462 15.7949C122.111 15.5078 122.658 15.1113 123.102 14.6055C123.547 14.0996 123.885 13.5049 124.118 12.8213C124.35 12.1309 124.466 11.3789 124.466 10.5654V10.3501C124.466 9.54346 124.35 8.79834 124.118 8.11475C123.885 7.42432 123.547 6.82617 123.102 6.32031C122.651 5.81445 122.101 5.41797 121.452 5.13086C120.802 4.84375 120.06 4.7002 119.226 4.7002C118.392 4.7002 117.651 4.84375 117.001 5.13086C116.359 5.41797 115.815 5.81445 115.371 6.32031C114.92 6.82617 114.578 7.42432 114.346 8.11475C114.113 8.79834 113.997 9.54346 113.997 10.3501ZM116.848 10.5654V10.3501C116.848 9.89893 116.892 9.47168 116.981 9.06836C117.07 8.66504 117.21 8.30957 117.401 8.00195C117.593 7.69434 117.839 7.45166 118.139 7.27393C118.44 7.09619 118.803 7.00732 119.226 7.00732C119.657 7.00732 120.023 7.09619 120.324 7.27393C120.624 7.45166 120.87 7.69434 121.062 8.00195C121.246 8.30957 121.383 8.66504 121.472 9.06836C121.561 9.47168 121.605 9.89893 121.605 10.3501V10.5654C121.605 11.0303 121.561 11.4678 121.472 11.8779C121.383 12.2812 121.246 12.6333 121.062 12.9341C120.87 13.2417 120.624 13.4844 120.324 13.6621C120.023 13.8398 119.664 13.9287 119.247 13.9287C118.816 13.9287 118.447 13.8398 118.139 13.6621C117.839 13.4844 117.593 13.2417 117.401 12.9341C117.21 12.6333 117.07 12.2812 116.981 11.8779C116.892 11.4678 116.848 11.0303 116.848 10.5654ZM136.436 4.7002C135.691 4.7002 135.004 4.88135 134.375 5.24365C133.746 5.59912 133.206 6.09131 132.755 6.72021L132.734 6.47412L132.622 4.90527H129.966V16H132.817V9.33496C132.946 9.02051 133.11 8.74707 133.309 8.51465C133.507 8.28223 133.746 8.09082 134.026 7.94043C134.259 7.81055 134.522 7.71484 134.816 7.65332C135.117 7.58496 135.452 7.55078 135.821 7.55078C136.176 7.55078 136.549 7.57471 136.939 7.62256C137.335 7.66357 137.721 7.72852 138.097 7.81738L138.518 4.97705C138.292 4.90869 137.995 4.84717 137.626 4.79248C137.263 4.73096 136.867 4.7002 136.436 4.7002ZM144.305 20.481C144.879 20.481 145.374 20.3853 145.791 20.1938C146.215 20.0024 146.574 19.7666 146.868 19.4863C147.162 19.2061 147.405 18.9019 147.596 18.5737C147.794 18.2456 147.955 17.9414 148.078 17.6611L153.707 4.90527H150.559L148.027 11.4268L147.606 12.5342L147.299 11.4062L144.756 4.90527H141.639L146.335 15.5283L145.679 16.7485C145.597 16.8989 145.525 17.0151 145.463 17.0972C145.409 17.1792 145.32 17.3022 145.197 17.4663C145.074 17.6304 144.923 17.7808 144.746 17.9175C144.575 18.061 144.376 18.1328 144.151 18.1328C144.041 18.1328 143.894 18.126 143.71 18.1123C143.532 18.1055 143.385 18.1021 143.269 18.1021L142.92 20.2759C143.166 20.3442 143.389 20.3955 143.587 20.4297C143.792 20.4639 144.031 20.481 144.305 20.481Z" fill="#946F0D"/>
</svg>
