<svg width="200" height="174" viewBox="0 0 200 174" fill="none" xmlns="http://www.w3.org/2000/svg">
<path d="M32.9227 83.981L31.5965 85.049L32.4358 86.5271L63.0314 140.404L63.0314 165.626L9.06408 85.9066L98.3085 10.959L98.3084 31.3237L32.9227 83.981Z" fill="black" stroke="white" stroke-width="4"/>
<path d="M167.083 83.981L168.427 85.0636L167.557 86.5502L136.004 140.418L136.004 165.713L190.931 85.8977L101.697 10.959L101.697 31.3237L167.083 83.981Z" fill="black" stroke="white" stroke-width="4"/>
<path d="M117.857 90.3265L143.469 90.3265L143.469 76.5714L102.494 76.5714L102.494 87.6124L102.494 125.55L115.857 125.55L115.857 113.633L115.857 111.633L117.857 111.633L143.469 111.633L143.469 99.653L117.857 99.653L115.857 99.653L115.857 97.653L115.857 92.3265L115.857 90.3265L117.857 90.3265Z" fill="black" stroke="white" stroke-width="4"/>
<path d="M89.2858 90.3265L100.117 90.3265L100.117 76.5714L59.1429 76.5714L59.1429 90.3265L71.4286 90.3265L73.4286 90.3265L73.4286 92.3265L73.4286 125.55L87.2858 125.55L87.2858 92.3265L87.2858 90.3265L89.2858 90.3265Z" fill="black" stroke="white" stroke-width="4"/>
</svg>
