<svg width="72" height="32" viewBox="0 0 72 32" fill="none" xmlns="http://www.w3.org/2000/svg">
<g filter="url(#filter0_d)">
<rect x="1" width="44" height="10" rx="1" fill="#1A181B"/>
<rect x="1" y="10" width="70" height="9" rx="1" fill="#1A181B"/>
<rect x="1" y="19" width="59" height="11" rx="1" fill="#1A181B"/>
<path d="M34.0968 2.90323V27.0968H9.90323V2.90323H34.0968ZM37 0H7V30H37V0ZM32 8.75H22V10H32V8.75ZM32 15H22V16.25H32V15ZM32 21.25H22V22.5H32V21.25ZM18.855 7.12L17.9675 6.25L14.7762 9.50875L12.8525 7.69375L11.98 8.58125L14.7925 11.25L18.855 7.12ZM18.855 13.37L17.9675 12.5L14.7775 15.7587L12.8537 13.9437L11.9812 14.83L14.7925 17.5L18.855 13.37ZM18.855 19.62L17.9675 18.75L14.7775 22.0087L12.8537 20.1937L11.9812 21.08L14.7925 23.75L18.855 19.62Z" fill="#F46036"/>
</g>
<defs>
<filter id="filter0_d" x="0" y="0" width="72" height="32" filterUnits="userSpaceOnUse" color-interpolation-filters="sRGB">
<feFlood flood-opacity="0" result="BackgroundImageFix"/>
<feColorMatrix in="SourceAlpha" type="matrix" values="0 0 0 0 0 0 0 0 0 0 0 0 0 0 0 0 0 0 127 0"/>
<feOffset dy="1"/>
<feGaussianBlur stdDeviation="0.5"/>
<feColorMatrix type="matrix" values="0 0 0 0 0.956863 0 0 0 0 0.376471 0 0 0 0 0.211765 0 0 0 1 0"/>
<feBlend mode="normal" in2="BackgroundImageFix" result="effect1_dropShadow"/>
<feBlend mode="normal" in="SourceGraphic" in2="effect1_dropShadow" result="shape"/>
</filter>
</defs>
</svg>
