<svg width="28" height="21" viewBox="0 0 28 21" fill="none" xmlns="http://www.w3.org/2000/svg">
<path d="M24.7059 6.17645C22.9147 6.17645 21.9141 7.95528 22.3218 9.27704L17.9365 13.6747C17.5659 13.5635 17.0224 13.5635 16.6518 13.6747L13.5018 10.5247C13.9218 9.20292 12.9212 7.41175 11.1176 7.41175C9.32647 7.41175 8.31353 9.19057 8.73353 10.5247L3.10059 16.1453C1.77882 15.7376 0 16.7382 0 18.5294C0 19.8882 1.11176 21 2.47059 21C4.26176 21 5.26235 19.2212 4.85471 17.8994L10.4753 12.2665C10.8459 12.3776 11.3894 12.3776 11.76 12.2665L14.91 15.4165C14.49 16.7382 15.4906 18.5294 17.2941 18.5294C19.0853 18.5294 20.0982 16.7506 19.6782 15.4165L24.0759 11.0312C25.3976 11.4388 27.1765 10.4382 27.1765 8.64704C27.1765 7.28822 26.0647 6.17645 24.7059 6.17645Z" fill="#1C2D61"/>
<path d="M16.059 4.94118L16.8331 3.23647L18.5296 2.47059L16.8331 1.70471L16.059 0L15.3013 1.70471L13.5884 2.47059L15.3013 3.23647L16.059 4.94118Z" fill="#1C2D61"/>
<path d="M3.08824 9.88234L3.70588 7.41175L6.17647 6.79411L3.70588 6.17646L3.08824 3.70587L2.47059 6.17646L0 6.79411L2.47059 7.41175L3.08824 9.88234Z" fill="#1C2D61"/>
</svg>
