<svg width="23" height="23" viewBox="0 0 23 23" fill="none" xmlns="http://www.w3.org/2000/svg">
<path d="M4.7035 1.99429L1.99333 4.70446L20.2898 23L23 20.2898L4.7035 1.99429ZM6.73611 8.09219L3.34842 4.70446L4.7035 3.34937L8.0912 6.73709L6.73611 8.09219ZM8.395 2.49071C9.57569 2.85104 10.5005 3.77583 10.8598 4.9565C11.2211 3.77583 12.1459 2.85104 13.3256 2.49071C12.1459 2.13038 11.2211 1.20654 10.8598 0.0249167C10.5005 1.20558 9.57569 2.13038 8.395 2.49071ZM3.26983 9.15499C2.79258 10.7218 1.56688 11.9475 0 12.4257C1.56688 12.904 2.79258 14.1287 3.26983 15.6946C3.74804 14.1287 4.97375 12.903 6.53967 12.4257C4.97375 11.9466 3.74804 10.7218 3.26983 9.15499ZM12.4248 6.12183C13.2605 6.37675 13.9131 7.03031 14.168 7.866C14.4229 7.03031 15.0765 6.37675 15.9112 6.12183C15.0765 5.86692 14.4229 5.21333 14.168 4.37767C13.9131 5.21237 13.2595 5.86692 12.4248 6.12183ZM16.6664 0C16.376 0.952581 15.6295 1.69817 14.6778 1.9895C15.6314 2.28083 16.376 3.02642 16.6683 3.97996C16.9587 3.02737 17.7052 2.28179 18.6559 1.9895C17.7052 1.69913 16.9577 0.952581 16.6664 0Z" fill="#1C2D61"/>
</svg>
